<svg id="visual" viewBox="0 0 960 540" width="960" height="540" xmlns="http://www.w3.org/2000/svg" xmlns:xlink="http://www.w3.org/1999/xlink" version="1.1"><path d="M0 504L22.8 503.3C45.7 502.7 91.3 501.3 137 500.7C182.7 500 228.3 500 274 505.7C319.7 511.3 365.3 522.7 411.2 520.8C457 519 503 504 548.8 500.5C594.7 497 640.3 505 686 508C731.7 511 777.3 509 823 505.5C868.7 502 914.3 497 937.2 494.5L960 492L960 541L937.2 541C914.3 541 868.7 541 823 541C777.3 541 731.7 541 686 541C640.3 541 594.7 541 548.8 541C503 541 457 541 411.2 541C365.3 541 319.7 541 274 541C228.3 541 182.7 541 137 541C91.3 541 45.7 541 22.8 541L0 541Z" fill="#af322e" stroke-linecap="round" stroke-linejoin="miter"></path></svg>