<svg id="visual" viewBox="0 0 900 600" width="900" height="600" xmlns="http://www.w3.org/2000/svg" xmlns:xlink="http://www.w3.org/1999/xlink" version="1.1"><path d="M0 154L11.5 151C23 148 46 142 69 136.2C92 130.3 115 124.7 138.2 120.7C161.3 116.7 184.7 114.3 207.8 113C231 111.7 254 111.3 277 116.3C300 121.3 323 131.7 346 137.2C369 142.7 392 143.3 415.2 139.7C438.3 136 461.7 128 484.8 130.8C508 133.7 531 147.3 554 144.3C577 141.3 600 121.7 623 114C646 106.3 669 110.7 692.2 114.5C715.3 118.3 738.7 121.7 761.8 122.7C785 123.7 808 122.3 831 126.3C854 130.3 877 139.7 888.5 144.3L900 149L900 0L888.5 0C877 0 854 0 831 0C808 0 785 0 761.8 0C738.7 0 715.3 0 692.2 0C669 0 646 0 623 0C600 0 577 0 554 0C531 0 508 0 484.8 0C461.7 0 438.3 0 415.2 0C392 0 369 0 346 0C323 0 300 0 277 0C254 0 231 0 207.8 0C184.7 0 161.3 0 138.2 0C115 0 92 0 69 0C46 0 23 0 11.5 0L0 0Z" fill="#d19a66"></path><path d="M0 88L11.5 93.8C23 99.7 46 111.3 69 115C92 118.7 115 114.3 138.2 111.8C161.3 109.3 184.7 108.7 207.8 106.5C231 104.3 254 100.7 277 97.8C300 95 323 93 346 93.2C369 93.3 392 95.7 415.2 98.7C438.3 101.7 461.7 105.3 484.8 104C508 102.7 531 96.3 554 96.5C577 96.7 600 103.3 623 108.2C646 113 669 116 692.2 110.5C715.3 105 738.7 91 761.8 86C785 81 808 85 831 92.3C854 99.7 877 110.3 888.5 115.7L900 121L900 0L888.5 0C877 0 854 0 831 0C808 0 785 0 761.8 0C738.7 0 715.3 0 692.2 0C669 0 646 0 623 0C600 0 577 0 554 0C531 0 508 0 484.8 0C461.7 0 438.3 0 415.2 0C392 0 369 0 346 0C323 0 300 0 277 0C254 0 231 0 207.8 0C184.7 0 161.3 0 138.2 0C115 0 92 0 69 0C46 0 23 0 11.5 0L0 0Z" fill="#c98252"></path><path d="M0 72L11.5 76.3C23 80.7 46 89.3 69 91.8C92 94.3 115 90.7 138.2 87.2C161.3 83.7 184.7 80.3 207.8 80.3C231 80.3 254 83.7 277 87.7C300 91.7 323 96.3 346 91.3C369 86.3 392 71.7 415.2 72.7C438.3 73.7 461.7 90.3 484.8 90.8C508 91.3 531 75.7 554 72.2C577 68.7 600 77.3 623 77.5C646 77.7 669 69.3 692.2 69.8C715.3 70.3 738.7 79.7 761.8 83.2C785 86.7 808 84.3 831 80.8C854 77.3 877 72.7 888.5 70.3L900 68L900 0L888.5 0C877 0 854 0 831 0C808 0 785 0 761.8 0C738.7 0 715.3 0 692.2 0C669 0 646 0 623 0C600 0 577 0 554 0C531 0 508 0 484.8 0C461.7 0 438.3 0 415.2 0C392 0 369 0 346 0C323 0 300 0 277 0C254 0 231 0 207.8 0C184.7 0 161.3 0 138.2 0C115 0 92 0 69 0C46 0 23 0 11.5 0L0 0Z" fill="#c16a42"></path><path d="M0 58L11.5 58.5C23 59 46 60 69 55.7C92 51.3 115 41.7 138.2 39.5C161.3 37.3 184.7 42.7 207.8 46.2C231 49.7 254 51.3 277 54.7C300 58 323 63 346 66.7C369 70.3 392 72.7 415.2 69.5C438.3 66.3 461.7 57.7 484.8 51.5C508 45.3 531 41.7 554 45.7C577 49.7 600 61.3 623 65.7C646 70 669 67 692.2 65.3C715.3 63.7 738.7 63.3 761.8 64C785 64.7 808 66.3 831 66.8C854 67.3 877 66.7 888.5 66.3L900 66L900 0L888.5 0C877 0 854 0 831 0C808 0 785 0 761.8 0C738.7 0 715.3 0 692.2 0C669 0 646 0 623 0C600 0 577 0 554 0C531 0 508 0 484.8 0C461.7 0 438.3 0 415.2 0C392 0 369 0 346 0C323 0 300 0 277 0C254 0 231 0 207.8 0C184.7 0 161.3 0 138.2 0C115 0 92 0 69 0C46 0 23 0 11.5 0L0 0Z" fill="#b95036"></path><path d="M0 18L11.5 16.8C23 15.7 46 13.3 69 13.8C92 14.3 115 17.7 138.2 20.3C161.3 23 184.7 25 207.8 27C231 29 254 31 277 33C300 35 323 37 346 39.2C369 41.3 392 43.7 415.2 45.2C438.3 46.7 461.7 47.3 484.8 41C508 34.7 531 21.3 554 15.7C577 10 600 12 623 15C646 18 669 22 692.2 28C715.3 34 738.7 42 761.8 44.8C785 47.7 808 45.3 831 43.2C854 41 877 39 888.5 38L900 37L900 0L888.5 0C877 0 854 0 831 0C808 0 785 0 761.8 0C738.7 0 715.3 0 692.2 0C669 0 646 0 623 0C600 0 577 0 554 0C531 0 508 0 484.8 0C461.7 0 438.3 0 415.2 0C392 0 369 0 346 0C323 0 300 0 277 0C254 0 231 0 207.8 0C184.7 0 161.3 0 138.2 0C115 0 92 0 69 0C46 0 23 0 11.5 0L0 0Z" fill="#af322e"></path></svg>