<svg id="visual" viewBox="0 0 960 540" width="960" height="540" xmlns="http://www.w3.org/2000/svg" xmlns:xlink="http://www.w3.org/1999/xlink" version="1.1"><path d="M0 358L137 353L274 354L411 356L549 332L686 337L823 417L960 351L960 541L823 541L686 541L549 541L411 541L274 541L137 541L0 541Z" fill="#23252e"></path><path d="M0 433L137 357L274 382L411 374L549 419L686 406L823 359L960 382L960 541L823 541L686 541L549 541L411 541L274 541L137 541L0 541Z" fill="#363852"></path><path d="M0 448L137 428L274 416L411 448L549 441L686 443L823 389L960 425L960 541L823 541L686 541L549 541L411 541L274 541L137 541L0 541Z" fill="#4f4a77"></path><path d="M0 455L137 466L274 482L411 465L549 420L686 464L823 471L960 461L960 541L823 541L686 541L549 541L411 541L274 541L137 541L0 541Z" fill="#705b9b"></path><path d="M0 495L137 456L274 456L411 488L549 463L686 453L823 483L960 460L960 541L823 541L686 541L549 541L411 541L274 541L137 541L0 541Z" fill="#986bbe"></path><path d="M0 507L137 487L274 516L411 502L549 510L686 489L823 510L960 503L960 541L823 541L686 541L549 541L411 541L274 541L137 541L0 541Z" fill="#c678dd"></path></svg>