<svg id="visual" viewBox="0 0 960 540" width="960" height="540" xmlns="http://www.w3.org/2000/svg" xmlns:xlink="http://www.w3.org/1999/xlink" version="1.1"><rect x="0" y="0" width="960" height="540" fill="#23272e"></rect><path d="M0 453L20 446.5C40 440 80 427 120 422.3C160 417.7 200 421.3 240 428.2C280 435 320 445 360 443.8C400 442.7 440 430.3 480 422.5C520 414.7 560 411.3 600 408.7C640 406 680 404 720 408C760 412 800 422 840 422C880 422 920 412 940 407L960 402" fill="none" stroke-linecap="round" stroke-linejoin="miter" stroke="#1e2227" stroke-width="99"></path></svg>